<?xml version="1.0" standalone="no"?>
<!DOCTYPE svg PUBLIC "-//W3C//DTD SVG 20010904//EN"
 "http://www.w3.org/TR/2001/REC-SVG-20010904/DTD/svg10.dtd">
<svg version="1.0" xmlns="http://www.w3.org/2000/svg"
 width="120pt" height="120pt" viewBox="0 0 120 120"
 preserveAspectRatio="xMidYMid meet">
<metadata>
Created by potrace 1.8, written by Peter Selinger 2001-2007
</metadata>
<g transform="translate(0,120) scale(0.080000,-0.080000)"
fill="#000000" stroke="none">
<path d="M677 1222 c19 -17 20 -21 7 -26 -8 -3 -25 -1 -36 5 -11 6 -22 8 -25
6 -2 -3 5 -8 16 -12 12 -3 19 -11 16 -16 -4 -5 -16 -2 -29 6 -18 12 -23 12
-23 2 0 -8 6 -14 14 -15 7 -1 19 -3 27 -4 10 -1 13 -14 11 -45 -2 -53 -16 -71
-36 -47 -12 16 -12 17 3 11 10 -3 20 -1 24 5 4 6 3 8 -4 4 -6 -3 -13 -2 -17 4
-3 5 1 10 9 10 9 0 16 5 16 11 0 5 -4 8 -9 5 -5 -3 -15 2 -22 11 -12 15 -12
16 4 10 11 -4 16 -3 12 4 -10 14 -28 6 -31 -14 -1 -9 2 -15 7 -11 11 7 11 -7
0 -25 -11 -17 7 -51 26 -51 7 0 13 -5 13 -11 0 -6 -9 -9 -19 -6 -10 2 -24 1
-31 -3 -8 -5 -4 -8 11 -9 13 -1 35 -3 49 -4 14 -1 26 2 27 7 1 5 7 13 15 17
11 7 11 9 -1 9 -9 0 -10 4 -5 13 5 6 9 43 9 81 0 62 -2 70 -25 83 l-25 15 22
-20z"/>
<path d="M893 1088 c36 -21 52 -46 22 -34 -8 3 -15 2 -15 -3 0 -5 -11 -8 -24
-8 -17 0 -23 4 -19 13 3 8 1 14 -5 14 -14 0 -10 -21 12 -50 l18 -25 -7 25 c-6
21 -5 23 6 12 11 -10 11 -16 1 -33 -8 -12 -9 -18 -4 -15 6 3 12 1 14 -6 3 -7
14 -9 34 -3 16 4 24 9 18 12 -8 2 -9 15 -4 38 8 36 -1 50 -47 74 -39 20 -39
11 0 -11z"/>
<path d="M634 958 c2 -15 0 -31 -4 -33 -5 -3 -6 -14 -3 -25 4 -16 11 -19 27
-14 29 9 28 8 30 56 1 40 -1 43 -26 44 -24 1 -27 -2 -24 -28z"/>
<path d="M854 948 c-3 -5 -11 -5 -17 -2 -7 4 -9 4 -5 -1 4 -4 3 -14 -4 -22 -8
-11 -7 -12 5 -7 8 3 18 12 21 20 6 16 26 10 26 -7 0 -6 -4 -7 -10 -4 -5 3 -10
1 -10 -4 0 -6 5 -11 12 -11 9 0 9 -3 0 -12 -7 -7 -12 -17 -12 -22 0 -6 4 -5 8
2 5 8 8 -3 8 -28 -1 -22 -4 -40 -9 -40 -4 0 -5 -11 -1 -25 6 -25 5 -26 -34
-24 -31 2 -44 8 -53 26 -7 12 -15 21 -18 18 -4 -2 -13 1 -21 7 -12 8 -12 9 3
4 9 -3 17 -1 17 4 0 6 8 5 19 -2 11 -7 17 -16 14 -22 -3 -5 -1 -6 6 -2 6 4 14
0 17 -8 3 -9 10 -16 16 -16 5 0 6 5 3 10 -3 6 -2 10 4 10 5 0 12 -6 14 -12 4
-10 6 -10 6 0 1 7 -6 15 -14 18 -8 4 -12 10 -9 15 3 5 11 6 17 3 7 -4 9 -4 5
1 -4 4 -3 14 3 22 9 9 8 13 0 13 -6 0 -11 6 -11 14 0 8 -6 17 -12 19 -10 4
-10 6 0 6 6 1 12 6 12 13 0 9 -3 9 -12 0 -13 -13 -20 -45 -8 -37 17 10 20 -29
4 -47 -21 -22 -33 -15 -13 8 11 13 11 17 -4 25 -10 6 -14 16 -10 27 5 15 4 15
-8 -1 -14 -18 -16 -17 -41 3 -17 13 -29 17 -33 10 -5 -8 -11 -8 -20 0 -9 8
-14 6 -19 -5 -3 -9 -10 -14 -15 -11 -13 8 -41 -4 -41 -17 0 -7 4 -7 12 1 17
17 33 15 18 -3 -9 -10 -9 -15 -1 -15 6 0 11 5 11 11 0 5 5 7 10 4 6 -4 9 -1 8
6 -2 6 3 14 11 17 9 3 11 0 6 -9 -5 -8 0 -6 12 4 19 16 33 14 33 -5 0 -5 -4
-6 -10 -3 -5 3 -10 2 -10 -4 0 -5 -13 -12 -30 -16 -16 -4 -30 -11 -30 -16 0
-6 -9 -5 -22 2 -18 10 -20 9 -14 -7 4 -10 4 -15 0 -12 -5 6 -64 -17 -64 -25 0
-1 20 -2 45 -1 24 0 42 -3 39 -8 -3 -4 0 -8 5 -8 6 0 11 4 11 9 0 5 14 8 31 6
28 -4 29 -3 17 12 -8 11 0 8 20 -6 20 -14 31 -29 28 -38 -4 -9 -1 -12 7 -7 6
4 9 4 5 -1 -4 -4 -3 -14 2 -20 7 -9 5 -17 -6 -26 -15 -12 -16 -11 -10 8 9 27
-8 38 -25 16 -12 -15 -12 -16 3 -10 12 4 15 2 11 -8 -3 -8 -8 -13 -12 -10 -4
2 -8 -2 -8 -10 0 -8 6 -16 13 -19 8 -3 11 0 8 8 -6 15 47 17 57 3 4 -5 10 -4
13 2 4 6 2 11 -3 11 -6 0 -11 5 -11 12 0 8 7 6 18 -5 21 -21 5 -36 -34 -31
-13 1 -24 -2 -24 -7 0 -12 -32 -7 -42 6 -5 6 -11 5 -17 -4 -5 -8 -16 -11 -25
-8 -8 3 -18 3 -20 -2 -6 -9 -66 -2 -67 8 -4 36 -19 69 -19 43 0 -6 -12 -18
-27 -27 -23 -13 -24 -15 -5 -10 14 4 22 2 22 -7 0 -10 3 -9 10 2 6 9 10 10 10
3 0 -15 -17 -26 -24 -15 -3 5 -18 7 -32 4 -19 -3 -25 -1 -20 7 4 6 2 11 -3 11
-6 0 -11 -5 -11 -11 0 -5 -5 -7 -10 -4 -6 4 -8 10 -6 14 3 4 -1 8 -8 8 -8 0
-12 -7 -9 -16 3 -10 1 -12 -4 -6 -4 6 -19 10 -33 11 -14 1 -34 5 -44 9 -14 6
-17 5 -11 -4 6 -10 3 -11 -12 -2 -11 6 -23 7 -27 4 -3 -3 -6 -2 -6 3 0 5 -15
9 -32 10 -41 1 -69 7 -87 18 -10 7 -12 6 -6 -4 6 -10 4 -12 -10 -7 -20 8 -45
-8 -45 -29 0 -9 10 -12 30 -10 22 2 30 -1 31 -13 0 -10 2 -11 6 -3 2 6 9 12
14 12 6 0 7 -5 3 -11 -4 -7 1 -7 16 1 17 9 21 9 15 0 -5 -9 -1 -10 15 -5 15 5
20 4 16 -4 -5 -8 0 -8 19 -1 20 8 27 7 32 -5 4 -12 9 -13 19 -4 11 9 14 8 14
-2 0 -12 2 -12 9 0 6 9 11 10 15 2 4 -6 12 -9 17 -6 5 4 9 1 9 -5 0 -7 6 -8
18 -2 9 5 26 8 37 5 11 -2 29 -4 40 -5 18 0 20 -7 20 -57 0 -31 -4 -59 -10
-63 -6 -4 2 -20 20 -38 26 -27 27 -30 9 -31 -11 -1 -7 -4 11 -8 17 -4 33 -2
37 4 5 6 8 5 8 -4 0 -19 11 -8 15 16 2 10 4 18 5 18 9 0 6 41 -3 47 -8 5 -8 8
-1 8 6 0 10 12 8 26 -3 34 5 56 20 47 6 -4 6 -1 -2 9 -10 13 -10 17 4 22 24 9
31 7 14 -5 -12 -9 -11 -9 5 -3 11 4 30 7 42 7 13 -1 20 4 17 9 -4 6 2 5 14 -1
15 -8 22 -8 25 2 5 12 11 -17 8 -40 -2 -16 15 -17 25 -1 4 6 3 8 -4 4 -6 -3
-9 1 -7 11 2 10 4 20 4 22 1 2 10 -4 21 -14 15 -14 17 -21 9 -32 -9 -10 -8
-13 1 -13 9 0 9 -4 3 -12 -6 -7 -9 -23 -8 -36 2 -25 -8 -35 -40 -39 -13 -2
-16 0 -8 5 7 4 11 18 8 30 -2 13 -1 20 3 18 5 -3 9 4 9 15 3 32 -20 16 -24
-17 -1 -16 -4 -38 -5 -49 -2 -12 2 -19 10 -17 8 1 11 -2 8 -7 -3 -5 -16 -7
-29 -4 -19 4 -20 3 -4 -7 14 -9 23 -7 44 9 14 12 32 21 39 21 7 0 20 10 29 23
8 12 18 20 21 19 3 -2 8 -1 11 2 4 3 0 6 -8 6 -11 0 -14 9 -11 38 2 20 9 42
14 49 6 7 5 14 -2 18 -14 9 8 38 25 31 6 -2 12 2 12 10 0 7 -5 10 -10 7 -6 -4
-7 -1 -1 8 4 8 9 20 10 27 3 18 14 29 14 14 0 -7 5 -12 11 -12 5 0 7 4 4 10
-4 6 1 7 11 3 12 -4 15 -3 10 5 -5 8 -2 10 8 6 9 -3 16 -10 16 -16 0 -5 -4 -7
-9 -3 -5 3 -12 2 -15 -3 -3 -5 2 -9 10 -9 9 0 21 10 26 23 6 13 16 20 24 17 8
-3 20 -1 27 5 6 5 22 8 35 7 16 -1 21 2 17 13 -4 10 0 12 11 8 8 -3 22 -6 30
-6 9 0 12 -5 9 -10 -9 -15 21 -23 42 -11 15 9 13 10 -10 5 -20 -5 -27 -3 -25
7 2 8 -7 15 -20 17 -12 2 -20 7 -17 12 3 5 1 11 -5 15 -15 9 -12 28 3 19 6 -4
8 -3 4 1 -9 11 -39 16 -33 7 5 -10 -20 -32 -28 -25 -3 4 -6 1 -6 -6 0 -9 -8
-11 -26 -7 -17 5 -23 3 -19 -4 3 -5 1 -10 -4 -10 -6 0 -11 5 -11 10 0 6 -5 10
-11 10 -5 0 -7 -4 -4 -10 3 -5 0 -10 -7 -11 -81 -6 -118 -5 -107 2 7 4 17 5
21 3 4 -3 8 0 8 5 0 6 5 11 11 11 5 0 7 -4 4 -10 -3 -5 -1 -10 4 -10 15 0 14
6 -5 38 -15 25 -14 25 14 -5 17 -17 33 -29 36 -26 3 3 -5 14 -17 24 -12 10
-17 18 -10 19 6 0 15 -4 18 -10 12 -20 95 5 95 29 0 4 -13 7 -30 7 -32 0 -37
-5 -18 -24 16 -16 -4 -16 -21 1 -11 10 -12 9 -6 -2 5 -9 3 -12 -6 -9 -8 3 -13
12 -11 20 3 19 -23 42 -38 33 -6 -3 -8 -11 -5 -16 4 -5 1 -9 -4 -9 -14 0 -14
11 -1 44 7 19 6 26 -3 26 -9 0 -9 2 0 8 7 4 9 12 5 18 -9 14 -71 24 -78 12z
m-34 -207 c0 -3 11 -7 25 -8 47 -4 55 -6 55 -16 0 -5 7 -4 15 3 10 9 15 9 15
1 0 -6 -5 -11 -11 -11 -5 0 -7 -4 -4 -10 5 -9 -9 -14 -18 -7 -2 1 -11 -4 -21
-12 -14 -12 -19 -10 -38 14 -21 26 -22 27 -36 9 -12 -15 -13 -15 -9 -2 3 9 3
19 -1 22 -15 15 -9 33 9 29 10 -3 19 -8 19 -12z m-255 -162 c-4 -6 0 -9 11 -7
15 2 18 -4 19 -39 1 -27 -3 -44 -11 -47 -8 -3 -11 -12 -7 -23 6 -16 5 -16 -8
-3 -17 16 -21 50 -7 50 4 0 8 5 8 11 0 5 -4 8 -8 5 -5 -3 -9 10 -9 29 0 19 4
35 9 35 5 0 6 -5 3 -11z"/>
<path d="M830 722 c0 -17 38 -44 45 -32 3 5 11 8 16 5 5 -4 9 -1 9 4 0 10 -14
15 -32 12 -5 0 -8 4 -8 9 0 6 -7 10 -15 10 -8 0 -15 -4 -15 -8z"/>
<path d="M576 873 c-7 -18 12 -36 27 -26 5 3 7 0 5 -8 -3 -8 -12 -12 -19 -11
-42 11 -58 11 -68 -2 -14 -16 11 -42 30 -30 8 5 10 3 5 -7 -4 -8 2 -3 13 11
11 14 21 21 21 16 0 -5 6 -3 14 3 8 7 14 21 13 31 -1 14 -5 16 -13 9 -8 -6
-14 -6 -18 0 -3 5 -1 11 6 13 8 3 9 6 1 11 -6 4 -14 -1 -17 -10z"/>
<path d="M486 813 c-4 -5 -12 -9 -17 -9 -5 -1 -11 -3 -14 -4 -3 -1 -9 -3 -15
-4 -5 0 -16 -10 -25 -21 -15 -20 -15 -20 -9 0 5 16 4 17 -5 5 -6 -8 -11 -11
-11 -7 0 4 -10 2 -22 -5 -13 -7 -26 -13 -30 -14 -5 -1 -11 -3 -15 -4 -5 -1
-11 -2 -15 -1 -4 0 -5 -8 -3 -18 2 -11 -3 -22 -10 -25 -9 -3 -12 1 -10 15 3
17 1 18 -18 7 -12 -7 -25 -12 -29 -13 -3 0 -9 -3 -13 -7 -4 -3 1 -5 12 -4 10
2 23 0 28 -4 14 -10 48 -9 61 2 7 5 14 3 17 -6 4 -9 17 -13 39 -11 18 1 36 -3
40 -9 5 -7 8 -5 8 5 0 16 37 30 87 33 12 1 26 6 30 10 5 5 2 6 -6 1 -10 -6
-12 -4 -7 4 6 9 11 9 21 1 7 -6 25 -9 40 -6 20 4 24 2 16 -8 -13 -15 -3 -55
12 -52 7 1 25 10 40 20 22 15 25 21 15 28 -10 7 -10 9 2 5 8 -2 16 -13 16 -25
1 -16 -4 -21 -19 -19 -11 1 -22 -5 -24 -13 -3 -10 -2 -11 4 -3 5 6 17 11 28
10 12 -1 19 3 17 12 -2 8 3 11 11 8 8 -3 14 1 14 9 0 8 -5 14 -10 14 -5 0 2 9
17 21 31 24 22 45 -18 44 -32 -2 -42 -10 -14 -12 12 -1 26 -7 32 -14 8 -8 8
-10 0 -6 -6 3 -26 9 -44 12 -18 3 -38 9 -44 13 -18 11 -36 11 -36 0 0 -7 -4
-7 -12 -1 -7 5 -27 9 -45 8 -17 0 -29 3 -27 7 5 8 -11 12 -30 9 -5 -1 -6 5 -3
14 7 16 4 19 -7 8z m18 -26 c3 3 6 2 6 -3 0 -5 -9 -15 -20 -22 -11 -7 -20 -8
-20 -3 0 5 5 11 12 13 8 3 6 7 -5 11 -9 3 -16 3 -16 -1 5 -28 -26 -50 -60 -43
-8 1 -10 -2 -6 -10 6 -9 1 -10 -19 -5 -25 6 -26 5 -16 -14 6 -11 7 -20 1 -20
-15 0 -22 30 -10 51 5 11 14 17 20 14 5 -4 9 0 9 7 0 9 3 9 10 -2 9 -13 14
-11 32 10 14 16 19 19 15 8 -4 -10 -3 -18 2 -18 5 0 11 9 14 21 5 17 9 19 25
10 11 -6 22 -7 26 -4z"/>
<path d="M818 588 c7 -9 9 -19 4 -22 -5 -3 -8 -15 -7 -28 1 -13 -1 -28 -6 -33
-4 -6 -4 -17 1 -25 11 -18 12 -17 14 35 1 22 5 45 9 51 4 7 -1 18 -11 25 -15
13 -16 12 -4 -3z"/>
<path d="M860 442 c-19 -10 -34 -23 -32 -31 1 -7 -2 -10 -8 -6 -6 4 -22 -1
-36 -10 -19 -12 -23 -20 -15 -29 7 -8 7 -16 1 -22 -13 -13 26 -60 46 -56 8 2
14 -2 14 -8 0 -6 6 -10 14 -8 8 2 21 -5 28 -15 13 -18 14 -17 14 2 0 11 -4 17
-8 15 -4 -3 -6 10 -5 28 2 19 8 32 15 31 7 -2 12 1 12 7 0 6 -5 10 -11 10 -5
0 -7 5 -4 10 3 6 1 10 -6 10 -8 0 -9 4 0 13 6 8 9 23 6 36 -2 12 0 19 6 16 5
-4 7 -11 4 -16 -4 -5 5 -4 19 3 29 12 34 25 11 25 -8 0 -11 -5 -8 -10 3 -5 0
-7 -8 -5 -8 3 -13 11 -11 17 3 14 3 14 -38 -7z"/>
<path d="M1006 415 c4 -25 3 -27 -11 -15 -8 7 -18 10 -22 7 -3 -4 -14 -2 -24
4 -14 7 -17 6 -13 -4 3 -8 17 -14 31 -13 15 1 28 -5 30 -14 4 -13 3 -13 -7 0
-9 11 -13 12 -17 2 -2 -6 -8 -10 -13 -7 -4 3 -13 -2 -20 -11 -10 -12 -11 -17
-1 -27 10 -9 11 -8 5 7 -5 13 -4 17 4 12 6 -3 14 -1 17 5 4 5 13 8 21 5 24 -9
42 49 21 70 -3 4 -4 -6 -1 -21z"/>
<path d="M572 355 c21 -25 34 -34 24 -16 -3 5 1 15 10 22 13 11 14 9 9 -17
l-7 -29 15 25 c7 14 13 26 12 28 -6 7 -45 10 -40 2 3 -5 1 -11 -4 -14 -5 -3
-11 1 -15 9 -3 8 -10 15 -16 15 -5 0 0 -11 12 -25z"/>
<path d="M789 266 c16 -9 20 -15 11 -18 -11 -3 -11 -6 -2 -12 7 -4 12 -2 12 5
0 8 5 7 17 -2 11 -10 14 -10 9 -1 -4 6 -2 12 3 12 10 0 15 -14 12 -33 -1 -5 3
-6 9 -2 7 4 7 12 0 24 -5 10 -6 22 -2 26 4 5 1 5 -5 1 -7 -4 -18 -4 -25 0 -7
4 -24 9 -38 10 l-25 3 24 -13z"/>
</g>
</svg>
